<?xml version="1.0" encoding="utf-8"?>
<!-- Generator: Adobe Illustrator 23.0.1, SVG Export Plug-In . SVG Version: 6.00 Build 0)  -->
<svg version="1.1" id="Layer_1" xmlns="http://www.w3.org/2000/svg" xmlns:xlink="http://www.w3.org/1999/xlink" x="0px" y="0px"
	 viewBox="0 0 603 258.1" style="enable-background:new 0 0 603 258.1;" xml:space="preserve">
<style type="text/css">
	.st0{fill:#006BB1;}
	.st1{fill-rule:evenodd;clip-rule:evenodd;fill:#007BB3;}
	.st2{fill-rule:evenodd;clip-rule:evenodd;fill:#09B7E1;}
	.st3{fill:#3F3F41;}
	.st4{fill:#515151;}
	.st5{opacity:0.78;fill:none;stroke:#000000;stroke-width:2;stroke-miterlimit:10;}
</style>
<path class="st0" d="M15.6,160v-21.4h25.8v-12.1H15.6v-18.6H43V95.5H0.4v76.9h44.3V160H15.6z M58.8,129.9c3.7-2.2,8.9-3.8,14.1-3.8
	c8.3,0,10.3,4.2,10.3,9.7c-18.2,0-31.3,6.7-31.3,21c0,9,6.6,16.7,17.2,16.7c6.4,0,12-2.5,15.2-6.9h0.3l0.9,5.8h13.7
	c-0.6-3.4-0.8-8.3-0.8-13.2v-20.4c0-12.2-4.8-23.2-22.6-23.2c-9,0-16.1,2.5-19.9,4.7L58.8,129.9z M83.6,153.3c0,7.1-6,9.6-9.6,9.6
	c-3.8,0-7.2-2.3-7.2-7.6c0-8.1,8.5-10,16.8-10V153.3z M108.5,169.7c3.8,2.2,9.9,3.7,16.2,3.7c14.3,0,22.6-7,22.6-17.6
	c0-7.7-4.5-13.1-14.2-17c-6.6-2.7-8.7-4.3-8.7-7.4c0-3,2.5-5.3,7.1-5.3c4.3,0,8.3,1.6,10.8,2.9l2.9-10.4c-3.3-1.7-8.3-3.1-14.2-3.1
	c-12.8,0-21,7.6-21,17.6c0,6.1,3.9,12,14.6,16.2c6.3,2.6,8.2,4.4,8.2,7.8c0,3.4-2.6,5.6-7.9,5.6c-4.7,0-10.4-2-13.4-3.7L108.5,169.7
	z M203.3,149c0.3-1.6,0.4-3.7,0.4-5.9c0-18-9.1-27.6-23-27.6c-16.8,0-26.3,13.8-26.3,29.8c0,17.3,10.1,28.1,27.8,28.1
	c7.1,0,13.8-1.2,18.5-3.2l-2.2-10.2c-3.9,1.3-8.3,2.3-14,2.3c-8.2,0-15.2-3.8-15.6-13.3H203.3z M169,138.7
	c0.4-5.5,3.5-12.9,10.8-12.9c7.5,0,9.9,7.1,9.8,12.9H169z M268.5,95.5l-9,28.9c-2.7,9.2-5,18.5-6.9,27.1h-0.3
	c-1.7-8.8-4-17.8-6.6-27.1l-8.5-28.9h-18.8l-5.3,76.9h13.9l1.5-29.6c0.5-9.5,1-20.9,1.2-30.6h0.3c1.9,9.4,4.3,19.8,6.9,28.5
	l8.7,30.6h11.5l9.7-31.1c2.7-8.6,5.5-18.8,7.8-28h0.3c-0.1,7.8,0.4,20.2,0.8,30.3l1.5,29.9h14.5l-4.5-76.9H268.5z M328.7,145.8
	c-0.8,3.5-1.7,7.4-2.4,10.4h-0.3c-0.7-3.1-1.8-7-2.7-10.4l-8.4-29.1h-16.7l19.3,51.2c0.4,1.1,0.6,1.9,0.6,2.5
	c0,1.1-2.6,6.8-7.6,10.3c-2.7,1.8-5.6,3.4-8,4.1l3.8,12.5c3.4-0.6,9.3-2.6,14.8-7.8c6.5-6.3,11.3-16.1,17.7-34.1l13-38.7h-15.9
	L328.7,145.8z M353.5,95.5v12.8H373v64.1h15.2v-64.1h19.6V95.5H353.5z M429.2,126.4l-0.6-9.7h-13.1c0.2,5,0.4,10.5,0.4,17.4v38.3
	h15.2v-28.8c0-9.5,5.3-14,12.2-14c1.5,0,2.8,0.1,3.9,0.3v-14.1c-1-0.2-2-0.3-3.4-0.3c-5.3,0-11.5,3.7-14.2,10.9H429.2z M471.4,101.5
	c0-4.6-3.3-7.9-8.2-7.9c-4.7,0-8.1,3.3-8.1,7.9c0,4.5,3.3,7.9,8.1,7.9C467.9,109.4,471.4,106.3,471.4,101.5 M455.7,172.4h15.2v-55.7
	h-15.2V172.4z M497.5,116.7h-13.3c0.2,5.1,0.4,11,0.4,18.2v59.8h15.2V167h0.2c2.5,3.7,7.3,6.5,13.6,6.5c11.6,0,23.6-9,23.6-29.5
	c0-17.1-9.3-28.5-21.8-28.5c-7.4,0-13.3,3.1-17,8.8h-0.2L497.5,116.7z M499.8,139.5c0-6.7,4.6-12.1,10.5-12.1
	c7.5,0,11.4,7.2,11.4,17.1c0,10-4,17.4-11.7,17.4c-5.2,0-10.2-3.9-10.2-12V139.5z"/>
<path class="st1" d="M98.9,123.9c41.9-82.2,156.4-19.4,219.9-74.2C255.6,113.9,130.2,59.7,98.9,123.9"/>
<path class="st2" d="M247,0.2l148.6,11.9c7.3,0.5,6.1,1.8,2.5,5.1l-72.5,69c-4.1,4.4-5,3.1-9.8-2L287.4,53c-3.8-3.8-4.4-4.6,2.1-6.9
	L360,24l-79.3,13.8c-6,1.2-5.2,2.1-9.4-3.7L244.8,4.7C241.6,1.2,241.8-0.6,247,0.2"/>
<path class="st1" d="M289.8,51.2l7.7,8c3.7,3.9,2.7,4.1-1.5,6.6l-24.5,11.1c-2.9,1.7-4.7,0.3-2.7-2.9l15.5-24.2
	C285.7,46.8,287.3,48.4,289.8,51.2"/>
<path class="st3" d="M518.6,194.2c0.8,0,1.3-0.2,1.5-0.7c0.2-0.5,0.3-1,0.3-1.7c0-0.5-0.2-1-0.7-1.4c-0.5-0.4-0.9-0.6-1.5-0.6
	c-0.7,0-1.1,0.3-1.3,0.8c-0.3,0.5-0.4,1.1-0.4,1.6c0,0.6,0.2,1,0.6,1.4C517.6,194.1,518.1,194.2,518.6,194.2 M533.3,195.3
	c1.4,0,2.8-0.2,4.2-0.7s2.6-1.1,3.7-1.9c1.2-0.8,2.2-1.7,3.2-2.8c0.9-1,1.7-2.2,2.4-3.3c0.1-0.2,0.2-0.3,0.3-0.6
	c0.1-0.2,0.1-0.4,0.1-0.5c0-0.5-0.3-0.8-0.8-0.8c-0.3,0-0.6,0.1-0.9,0.4c-0.3,0.3-0.5,0.6-0.6,0.8c-0.5,0.9-1.1,1.7-1.8,2.5
	c-0.7,0.8-1.5,1.5-2.3,2.2s-1.8,1.1-2.7,1.5c-1,0.4-2,0.6-3.1,0.6c-1.1,0-1.9-0.3-2.5-1c-0.5-0.5-0.9-1-1.1-1.7
	c-0.2-0.7-0.3-1.4-0.3-2.3c0-0.8,0.1-1.7,0.3-2.7c0.2-0.9,0.5-1.8,0.8-2.6c0.3-0.8,0.7-1.6,1.1-2.3c0.4-0.7,0.8-1.2,1.2-1.7
	c0.4-0.3,0.7-0.6,1.1-0.8c0.4-0.2,0.8-0.3,1.3-0.3c0.6,0,0.9,0.2,1,0.6c0.1,0.4,0.2,0.8,0.2,1.3c0,0.8-0.1,1.4-0.4,1.9
	c-0.3,0.5-0.5,1-0.5,1.3c0,0.3,0.2,0.5,0.5,0.5c0.5,0,0.9-0.2,1.3-0.5c0.5-0.4,0.8-1,0.9-1.7c0.1-0.7,0.2-1.4,0.2-1.9
	c0-1.3-0.3-2.2-1.1-2.8c-0.7-0.6-1.7-0.9-2.9-0.9c-1,0-2,0.2-2.9,0.6c-0.9,0.4-1.7,1-2.4,1.7c-0.5,0.5-1.1,1.2-1.5,1.9
	c-0.5,0.7-0.9,1.6-1.2,2.4c-0.3,0.9-0.6,1.8-0.8,2.7c-0.2,0.9-0.3,1.8-0.3,2.8c0,1.2,0.2,2.5,0.6,3.6c0.4,1.2,1,2.2,1.9,3
	c0.5,0.5,1,0.8,1.7,1.1C531.7,195.2,532.4,195.3,533.3,195.3 M545.2,188.8c0,2.2,0.5,3.7,1.4,4.8c0.9,1,2,1.5,3.3,1.5
	c1,0,2.1-0.3,3.1-0.8c1.1-0.6,2.1-1.4,2.9-2.5c0.9-1.1,1.6-2.4,2.2-4c0.6-1.6,0.8-3.4,0.8-5.4c0-0.9-0.1-1.7-0.3-2.4
	c-0.2-0.8-0.5-1.4-0.9-2c-0.4-0.6-0.9-1-1.4-1.4c-0.6-0.3-1.3-0.5-2-0.5c-1.3,0-2.6,0.4-3.7,1.2c-1.1,0.8-2.1,1.8-2.9,3.1
	c-0.8,1.2-1.4,2.6-1.9,4.1C545.5,186,545.2,187.4,545.2,188.8 M554.4,179.3c0.8,0,1.5,0.4,1.9,1.2c0.4,0.8,0.6,1.8,0.7,2.9
	c0,1.4-0.2,2.8-0.5,3.9c-0.3,1.1-0.8,2.1-1.4,2.9c-0.6,0.8-1.2,1.4-1.9,1.8c-0.7,0.4-1.3,0.7-1.9,0.7c-0.7,0-1.3-0.3-1.8-1
	c-0.5-0.6-0.7-1.6-0.7-3c0-1,0.2-2,0.5-3.1c0.3-1.1,0.7-2.1,1.2-3.1c0.5-0.9,1.1-1.7,1.7-2.3C552.9,179.6,553.6,179.3,554.4,179.3
	 M577,194c0.3,0,0.6-0.1,0.8-0.2c0.2-0.2,0.4-0.4,0.6-0.6c0.2-0.4,0.6-1,1.1-1.9c0.5-0.9,1-1.8,1.7-2.9c0.6-1,1.3-2.1,2-3.2
	c0.7-1.1,1.4-2.1,2.1-3.1c0.7-0.9,1.3-1.7,1.9-2.2c0.6-0.6,1.1-0.9,1.4-0.9c0.2,0,0.4,0.1,0.5,0.3c0.1,0.2,0.2,0.4,0.3,0.6
	c0,0.2,0.1,0.5,0.1,0.7v0.6c0,1.4-0.1,2.8-0.2,4.2c-0.2,1.4-0.2,2.8-0.2,4.2c0,0.6,0,1.2,0.1,2c0.1,0.7,0.2,1.4,0.4,2.1
	c0.2,0.7,0.6,1.2,1,1.6c0.5,0.5,1.1,0.7,1.9,0.7c0.9,0,1.8-0.3,2.8-0.8c1-0.5,2-1.2,2.9-2c1-0.8,1.8-1.6,2.7-2.5
	c0.8-0.9,1.5-1.6,2-2.2c0.1-0.1,0.2-0.3,0.3-0.5c0.1-0.2,0.2-0.3,0.2-0.5c0-0.3-0.1-0.5-0.1-0.7c-0.1-0.2-0.3-0.3-0.6-0.3
	c-0.3,0-0.6,0.1-0.9,0.5c-0.3,0.3-0.5,0.6-0.6,0.8c-0.3,0.4-0.7,0.9-1.3,1.6c-0.6,0.7-1.2,1.3-1.9,1.9c-0.7,0.6-1.4,1.1-2.1,1.5
	c-0.7,0.4-1.3,0.7-1.9,0.7c-0.4,0-0.6-0.1-0.8-0.3c-0.2-0.2-0.3-0.5-0.4-0.8c-0.1-0.3-0.1-0.6-0.1-0.9v-0.9c0-1.8,0.1-3.6,0.3-5.4
	c0.2-1.8,0.3-3.5,0.3-5.4c0-0.5-0.1-0.9-0.2-1.4c-0.1-0.5-0.3-0.9-0.5-1.3c-0.2-0.4-0.5-0.7-0.9-0.9c-0.4-0.3-0.9-0.4-1.4-0.4
	c-0.7,0-1.5,0.3-2.2,0.7c-0.7,0.5-1.3,1-1.8,1.5c-0.6,0.6-1.2,1.3-1.7,2.1c-0.5,0.7-1.1,1.5-1.5,2.2c-0.7,0.9-1.3,1.8-2,2.8
	c-0.7,0.9-1.3,1.8-1.9,2.8c-0.1,0.1-0.2,0.2-0.3,0.5c-0.1,0.3-0.3,0.4-0.4,0.4c-0.1,0-0.2-0.1-0.2-0.4c-0.1-0.3-0.1-0.6-0.1-1
	c0-0.4-0.1-0.7-0.1-1.1v-0.8c0-0.9,0-1.8,0.1-2.8c0-0.9,0.1-1.8,0.1-2.8c0-0.3,0-0.7-0.1-1.2c-0.1-0.4-0.1-0.9-0.3-1.3
	c-0.1-0.4-0.4-0.8-0.6-1c-0.3-0.3-0.6-0.4-1.1-0.4c-0.6,0-1.4,0.3-2.1,1c-0.8,0.7-1.5,1.4-2.3,2.4c-0.7,0.9-1.4,1.8-2.1,2.7
	c-0.6,0.9-1.1,1.6-1.4,2.1c0.2-0.9,0.4-1.8,0.6-2.8c0.2-0.9,0.5-1.8,0.9-2.7c0.1-0.3,0.3-0.7,0.5-1.2c0.2-0.4,0.4-0.9,0.6-1.3
	c0.2-0.5,0.3-0.9,0.5-1.4c0.1-0.5,0.2-0.8,0.2-1.2c0-0.3-0.1-0.6-0.3-0.8c-0.2-0.2-0.4-0.3-0.8-0.3c-0.7,0-1.4,0.2-2.2,0.5
	c-0.8,0.3-1.3,0.8-1.7,1.4c-0.2,0.4-0.4,1-0.7,2c-0.3,0.9-0.6,2-0.9,3.3c-0.3,1.2-0.6,2.6-0.9,3.9c-0.3,1.4-0.6,2.7-0.8,4
	c-0.2,1.3-0.4,2.4-0.5,3.5c-0.1,1-0.2,1.8-0.2,2.4c0,0.3,0.1,0.5,0.3,0.7c0.1,0.2,0.4,0.3,0.7,0.3c0.5,0,0.8-0.1,1.1-0.5
	c0.3-0.3,0.5-0.6,0.7-1c0.2-0.4,0.5-1,0.9-1.8c0.5-0.9,1-1.8,1.6-2.8c0.6-1,1.3-2.1,2-3.2c0.7-1.1,1.4-2.1,2.1-3.1
	c0.7-0.9,1.3-1.7,1.8-2.2c0.6-0.6,1-0.9,1.3-0.9c0.3,0,0.4,0.1,0.5,0.4c0,0.3,0.1,0.5,0.1,0.6v1.3v2.2c0,0.8,0,1.7,0,2.6
	c0,0.9,0.1,1.8,0.1,2.7c0.1,0.9,0.2,1.7,0.3,2.5c0.1,0.7,0.3,1.4,0.5,1.8C576.3,193.7,576.6,194,577,194"/>
<g>
	<path class="st4" d="M15.9,215.9H4.7l0.7-3.7h26.8l-0.7,3.7H20.3l-5.7,30.3h-4.4L15.9,215.9z"/>
	<path class="st4" d="M46.9,246.2c0-1.5,0.2-4.1,0.6-6.9h-0.1c-2.7,5.4-6.5,7.5-10.5,7.5c-4.8,0-7.8-3.8-7.8-8.5
		c0-8.9,7-17.1,18-17.1c2.6,0,5.4,0.4,7.3,1L52,234.4c-0.9,4.6-1.2,9-1,11.7H46.9z M49.5,225c-0.6-0.2-1.7-0.4-3.4-0.4
		c-6.6,0-12.5,5.8-12.5,13c0,2.6,1.1,5.6,4.8,5.6c3.8,0,8.4-4.5,9.7-11.5L49.5,225z"/>
	<path class="st4" d="M60.1,246.2l6.9-36.1h4.4L67,233h0.1c0.8-0.9,1.8-1.8,2.5-2.5l9.4-8.7h5.5L73,231.7l8.1,14.4h-4.9l-6.6-12
		l-3.5,2.9l-1.7,9.1H60.1z"/>
	<path class="st4" d="M105.1,244.7c-1.9,1.1-5.2,2.1-8.8,2.1c-6.9,0-10.1-4.6-10.1-10.2c0-7.6,6-15.4,14.2-15.4c5,0,7.9,2.8,7.9,6.5
		c0,6.6-7.9,8-17.7,7.7c-0.2,1.2,0,3.3,0.6,4.5c1.1,2.2,3.3,3.3,6,3.3c3.2,0,5.7-0.9,7.3-1.8L105.1,244.7z M99.7,224.5
		c-4.6,0-7.8,4.3-8.7,7.6c7.5,0.1,13-0.6,13-4.4C104,225.6,102.2,224.5,99.7,224.5z"/>
	<path class="st4" d="M125.1,246.2l4.7-24.4h4.4l-4.7,24.4H125.1z M130.6,214.8c0-1.7,1.3-2.9,2.9-2.9c1.5,0,2.6,1.1,2.7,2.7
		c0,1.7-1.2,2.9-2.9,2.9C131.6,217.5,130.6,216.3,130.6,214.8z"/>
	<path class="st4" d="M150.9,215.2l-1.2,6.6h6.2l-0.7,3.4H149l-2.1,11.2c-0.3,1.4-0.5,2.7-0.5,4.2c0,1.5,0.8,2.5,2.5,2.5
		c0.8,0,1.6-0.1,2.1-0.2l-0.2,3.4c-0.7,0.3-2.1,0.5-3.4,0.5c-4,0-5.5-2.5-5.5-5c0-1.6,0.2-3.1,0.6-4.8l2.3-11.8h-3.7l0.7-3.4h3.7
		l1-5.6L150.9,215.2z"/>
	<path class="st4" d="M192.2,230.3h-13.7l-2.3,12.2h15.4l-0.7,3.7h-19.7l6.5-34h18.9l-0.7,3.7h-14.5l-2,10.7h13.7L192.2,230.3z"/>
	<path class="st4" d="M216.7,246.2c0-1.5,0.2-4.1,0.6-6.9h-0.1c-2.7,5.4-6.5,7.5-10.5,7.5c-4.8,0-7.8-3.8-7.8-8.5
		c0-8.9,7-17.1,18-17.1c2.6,0,5.4,0.4,7.3,1l-2.4,12.3c-0.9,4.6-1.2,9-1,11.7H216.7z M219.3,225c-0.6-0.2-1.7-0.4-3.4-0.4
		c-6.6,0-12.5,5.8-12.5,13c0,2.6,1.1,5.6,4.8,5.6c3.8,0,8.4-4.5,9.7-11.5L219.3,225z"/>
	<path class="st4" d="M230.1,241.8c1.3,0.8,3.6,1.6,5.7,1.6c2.9,0,4.9-1.8,4.9-3.9c0-1.8-0.8-3-3.7-4.4c-3.2-1.6-4.8-3.7-4.8-6.3
		c0-4.3,3.9-7.6,9.3-7.6c2.4,0,4.5,0.7,5.5,1.3l-1.2,3.3c-0.9-0.5-2.6-1.2-4.7-1.2c-2.6,0-4.5,1.6-4.5,3.6c0,1.8,1.2,2.8,3.7,4.1
		c3,1.5,4.9,3.6,4.9,6.4c0,5.1-4.4,8.1-9.8,8.1c-2.9,0-5.3-0.9-6.6-1.8L230.1,241.8z"/>
	<path class="st4" d="M257.1,221.8l3,12.9c0.7,3,1.1,4.9,1.4,6.5h0.1c0.6-1.4,1.4-3,2.7-5.9l6.6-13.6h4.7l-9.5,18.1
		c-2.7,5.2-5.2,9.4-8.5,12.9c-3.1,3.2-6.6,4.5-8.2,4.8l-0.9-3.8c1-0.3,3-1,4.7-2.3c1.7-1.3,3.5-3.2,5-5.7c0.2-0.4,0.2-0.6,0.1-1
		l-5.8-22.9H257.1z"/>
</g>
<line class="st5" x1="602.3" y1="239.8" x2="293.7" y2="242.8"/>
</svg>
